PathFileType	4	(X/Y/Z)	29_2_23_p1_0-701_filt_butterworth.trc
DataRate	CameraRate	NumFrames	NumMarkers	Units	OrigDataRate	OrigDataStartFrame	OrigNumFrames
60.0	60.0	7	27	m	60.0	262	701
Frame#	Time	RHip			RKnee			RAnkle			RBigToe			RSmallToe			RHeel			LHip			LKnee			LAnkle			LBigToe			LSmallToe			LHeel			Neck			Head			Nose			RShoulder			RElbow			RWrist			RThumb			RIndex			RPinky			LShoulder			LElbow			LWrist			LThumb			LIndex			LPinky			
		X1	Y1	Z1	X2	Y2	Z2	X3	Y3	Z3	X4	Y4	Z4	X5	Y5	Z5	X6	Y6	Z6	X7	Y7	Z7	X8	Y8	Z8	X9	Y9	Z9	X10	Y10	Z10	X11	Y11	Z11	X12	Y12	Z12	X13	Y13	Z13	X14	Y14	Z14	X15	Y15	Z15	X16	Y16	Z16	X17	Y17	Z17	X18	Y18	Z18	X19	Y19	Z19	X20	Y20	Z20	X21	Y21	Z21	X22	Y22	Z22	X23	Y23	Z23	X24	Y24	Z24	X25	Y25	Z25	X26	Y26	Z26	X27	Y27	Z27	
262	4.366666666666666	0.35666753890173275	0.5426011306979207	0.8772645994995171	0.33431272940585005	0.6843728649692078	1.3265718126319008	0.30072922112964956	0.8266162882670429	1.748054545779155	0.2940665472141142	0.6302310758083531	1.7713598534238215	0.3509831979476319	0.6310350585487168	1.7538902903267048	0.2747599295320062	0.9202838221362247	1.80928845909808	0.15457939711208932	0.5526930009891183	0.8774428306523739	0.11447910514967931	0.6888408110892786	1.3295596428039125	0.10367336850101447	0.7983660146228614	1.7335547264462707	0.12737039939901315	0.5809382123649545	1.7408654804381822	0.07089873210786066	0.6342855228927594	1.7466090773518104	0.12024978132131202	0.8725764674803069	1.7827358163580793	0.28530432494959007	0.5247143861132929	0.3138034402877432	0.3230108844680313	0.41913316180571153	0.08499967194268061	0.3117627653507127	0.3745775105964665	0.19463774574668155	0.41281561419690915	0.4734855591773027	0.39037355288182535	0.5036063580074179	0.3141119421021516	0.42782696651677754	0.40523733560128694	0.37694918022274915	0.23309856713981691	0.3231115527865665	0.4039226031253751	0.15119019707069367	0.31596127057892975	0.39110731190889336	0.14184111443151642	0.3432843961354507	0.3191989860422768	0.19538205891671706	0.1318666234028566	0.5452088353255113	0.40800578412913	-0.0660169518792577	0.49266003094967714	0.5397730775453251	0.07582596630904816	0.41045378134789	0.6426500787195955	0.1679113181215119	0.4415346523309927	0.7018920218494833	0.17265598681908534	0.42568568062177087	0.7345722339558662	0.11198224873541548	0.46036316223637214	0.7641435946242334
263	4.383333333333334	0.3559557349060608	0.5440302453146431	0.8772017914182366	0.3342528832956932	0.6840152656381091	1.3244160585287645	0.30058478725180915	0.8266995519463727	1.748145252468935	0.29410706882258786	0.630357544686424	1.7713237435304467	0.35107319124821057	0.6309952170095827	1.7538521696515892	0.2746928642409705	0.920301292673686	1.8087668715207101	0.1546776812794293	0.5488696741897486	0.8751625153049245	0.1146791592256799	0.6882731235953272	1.3262957793434724	0.10366001056606056	0.7982991571980936	1.7335290151704041	0.12794676438871824	0.5805994059774084	1.7398098447085744	0.07089950340297095	0.6342143126268794	1.746562910231095	0.11964413305774292	0.8710268554937088	1.7820618829233066	0.2843521678628087	0.5255391463868849	0.30876756242909126	0.318975718796132	0.42701933879965825	0.08071383315356628	0.3108776776967183	0.3762192674964744	0.18841129860149844	0.4106318860698144	0.4785078423376362	0.3887626715498244	0.5015659129588337	0.31439232722384425	0.43107887300262804	0.40359811966556075	0.3675489034141264	0.24031601674628345	0.32276850678199176	0.40365654068414913	0.1617451866170128	0.3136438461579346	0.390405079704247	0.148978991464604	0.33789341777171317	0.30895368156714026	0.20230059109720147	0.12921735801421944	0.5456408355958693	0.40951544900468584	-0.06552646414013936	0.4926716187710852	0.5432944263870061	0.0757519115196969	0.41162633669817894	0.6445740559731962	0.16729180069758182	0.4389652771655509	0.7031058351095839	0.17257550543015848	0.42167262547771195	0.7363744652269394	0.11053893991234118	0.4649757278651041	0.7648801815355509
264	4.4	0.35464222187991407	0.5455077439243694	0.8775509426654593	0.3344039865266061	0.6839710523499356	1.3221994506932193	0.3002313335868765	0.8270350414777621	1.7492000102335719	0.2941588091343232	0.6304462277172027	1.7712397198031327	0.35120258227084944	0.6309256996158149	1.7538085274839288	0.27464195003912373	0.9202633428936519	1.808605293314506	0.1544375921772258	0.5446546285727492	0.8719916100413618	0.11499007893338702	0.6873702388931271	1.323023223982076	0.10364620325014487	0.7982215186230812	1.7335022861134584	0.1278053653525955	0.5801048346965022	1.7376478261708634	0.0708855081042889	0.6340905930624482	1.7464448405725665	0.11827651945980004	0.8690876431679493	1.7812172865963096	0.2819734057293156	0.5273465240216413	0.30527480917824146	0.3128953724569754	0.4387100880178373	0.07569710996376672	0.30889630459223566	0.3773722699682079	0.18467748964036793	0.4095127772547772	0.48543485395399305	0.38620090173689975	0.5001668067469602	0.31496998091619655	0.4364713458452106	0.401414570478811	0.3557632675183417	0.2480123020530487	0.32267552013625145	0.40220677567629515	0.17356957860409558	0.3112763918563665	0.38869289054570816	0.1572663913968712	0.3321795337647647	0.29610526667601145	0.21036948167425246	0.12774255154131825	0.5463424547904433	0.41049157213430276	-0.0641602243354739	0.4897482319393539	0.5480940545603317	0.0753464780797006	0.4109211363734679	0.6455475764047042	0.16665247333918928	0.4369478361836937	0.7051633956192727	0.17195759139251882	0.41961596492116415	0.7391051355054921	0.10871634204976056	0.46859355510047357	0.7654665720169321
265	4.416666666666667	0.35323699391152036	0.548612725355003	0.8782366055450714	0.3346371428733121	0.6841609724015973	1.3212088007737894	0.2997572646585941	0.8275140928497994	1.751096614914296	0.2942037661338142	0.6304155727433377	1.7711363270611433	0.351304716478863	0.6308491131734629	1.7537752110531721	0.2746044376643086	0.9202617225741645	1.8086348783990163	0.15391844236935232	0.5420544802927512	0.869457738518173	0.11522474043029249	0.6865634733469236	1.3208005474575326	0.10363427635732715	0.7981850105774158	1.7334946038926873	0.12744988096519086	0.5793313566312424	1.735409017230822	0.07086881896342775	0.6340799168514741	1.7464123201035449	0.11657041092575965	0.8676580346054634	1.780599562248871	0.2786192407028402	0.5294687609105148	0.30456453446320997	0.3071175786218225	0.4497229859652487	0.07175369953518224	0.30737369377532203	0.3789122609019127	0.18336272734703787	0.40929744921205546	0.49123189131576794	0.38364572113637624	0.5002712512227765	0.3161726259528105	0.44351869907774805	0.39979153778304266	0.34388306939223334	0.2551690504473125	0.32270326491925444	0.39837279412520243	0.1852714000219757	0.31029760779675464	0.3856119631726691	0.16403857204653838	0.32839449650267605	0.2852669391930492	0.21924658074275455	0.1269752810960753	0.5467293509705075	0.41118317568276447	-0.06330758503432107	0.4839043889495653	0.5537089569245012	0.07452115256495347	0.40593783969378344	0.6448228404925503	0.16534109045247825	0.4318668297403742	0.7070314367419033	0.17027385126753514	0.41927556523135406	0.7413064591536447	0.10718635680344549	0.4697740716177515	0.7652977140839567
266	4.433333333333334	0.3528830891827901	0.5529418121645406	0.8787967057666085	0.33515067403944987	0.6847647712606241	1.3212023153912742	0.29938219062318977	0.8279176911106522	1.7528438065354448	0.2942324698534369	0.630199452669196	1.7710449821006897	0.35133176867256644	0.6306953210074642	1.7537287538217776	0.2745902593016817	0.9202968335240451	1.8086749583595354	0.15323711102016283	0.5422414435047125	0.8681442200075237	0.11531240646612384	0.6862080406864379	1.3199807619316024	0.10362394386151783	0.7981939210367974	1.7334989233873455	0.12722817755274385	0.5787000060392553	1.734030659924518	0.07087197900616689	0.6342283567975427	1.7465287027771705	0.11530739431826688	0.8671572247525479	1.7803836358331018	0.27522925865115677	0.5301649696644815	0.30566984770209504	0.3040580911809178	0.45510603246378517	0.07001349798470739	0.30716823622447254	0.38025665511842416	0.18317962565203422	0.40944414390005546	0.4924335461317647	0.38239511210616517	0.502087147647445	0.31833872500653204	0.4515585657417972	0.4003349907511084	0.3317998659572435	0.2632859325697125	0.32292794352719034	0.39315001342564737	0.19865396396721474	0.31243837707602234	0.38178301137969145	0.16949532671632409	0.32937867274792326	0.28118240773065667	0.2282812051653503	0.1257170396560901	0.5451435697549065	0.41170556522496526	-0.06333512661690874	0.47775804010566947	0.5592605520509629	0.07363995493234224	0.3955808604943786	0.6434099198924674	0.1630664254011274	0.42208519991592497	0.7079248788142528	0.167861278321803	0.41706379405470884	0.7417224882234802	0.10676031735267524	0.4682650752908374	0.7641050614595243
267	4.45	0.35388502161166024	0.5564301731421775	0.8791920758012509	0.3362128715289883	0.6860474913874917	1.321324172549938	0.29924547797927586	0.8280992283860291	1.7536226278628062	0.2942557043400909	0.6298139030274301	1.7709725165755665	0.35129818714818056	0.6304250347402427	1.7536483086702033	0.27461314758900496	0.9202405573641458	1.8087525606679555	0.15236239268806662	0.5455922059252728	0.8677689743699863	0.11531354686056793	0.6862366505066346	1.3200174334553934	0.10361143717435709	0.798221569529026	1.733498239724383	0.12717908783363627	0.5784457844833921	1.733600492290712	0.07089162282699905	0.6343976680990973	1.7466682287326358	0.11478892729938323	0.8672796042252455	1.7804257376336432	0.2721077197060986	0.5284312359484866	0.30683723581949157	0.3031961087531583	0.45573788360821027	0.06985899544959355	0.3078948344034148	0.3810252379512161	0.18305715205949946	0.4097266651509328	0.4879400272161145	0.38288839575482936	0.5054951236718737	0.32341566605825817	0.46114036241532297	0.4039411872812646	0.3197075478896571	0.2754925392023114	0.3232518603156511	0.3897397256854634	0.21602982474308674	0.3170912224848053	0.3796532809361543	0.1785239254596535	0.33577990356714144	0.2876744441567826	0.2379430076133828	0.12310571696214621	0.539290469958375	0.4120020228284505	-0.0633982992584665	0.47457223043700514	0.564393340228044	0.0736129318483768	0.381925636159355	0.6427294399797298	0.16070100621560884	0.4105766233578974	0.7081122489195409	0.16596813808501765	0.4106847344746365	0.7402419251588986	0.10761366354996924	0.4644924086276966	0.762253026313676
268	4.466666666666667	0.355267061294598	0.5581330563459982	0.88018171066306	0.3375707356303415	0.687767473722118	1.321425310621402	0.29937001555822157	0.8279730409141076	1.7532325634790522	0.2942846717903325	0.6294984416952429	1.7709321505532243	0.35125645190688415	0.630129483342468	1.753558740844074	0.2746765151395648	0.9199467009766455	1.809148156314606	0.15100609649745367	0.55142787584032	0.8680276939060458	0.11529470568380104	0.6863997860070846	1.320229027220722	0.10359658205984809	0.7982470259958789	1.733489855185608	0.12720513353234725	0.5784217633148704	1.7335990937726933	0.07090439330321899	0.6344118558043834	1.7466665483918353	0.11472070544584544	0.8675323466223285	1.7805136581982335	0.2694060734536066	0.5248371829780407	0.30762617542293136	0.3021237645924189	0.45800838610508493	0.0695401147676075	0.30910326954855644	0.3827423537530853	0.18299247490344006	0.4101024092635094	0.4807672223721636	0.38516413740410044	0.5103962846712389	0.33401121482054497	0.4733721475797843	0.4098944907134241	0.3089114914987221	0.2933806902089476	0.32315229305414467	0.38937091808293023	0.23742653002895292	0.32094670794039587	0.37922560541685635	0.197583480133744	0.3441788282745097	0.3012311189379118	0.2518472139459519	0.1192901237590451	0.5283609158968667	0.41220068622567296	-0.0625326472756245	0.4762351798247774	0.5695269916637589	0.07486979043905856	0.36941367431041333	0.6429208848730706	0.15958180035702893	0.401168576897264	0.7080838859594348	0.1653827160156214	0.4016559765659891	0.7373680260958995	0.10945103461915934	0.4593404334308351	0.760460420519955
